<svg width="11" height="11" viewBox="0 0 11 11" fill="none" xmlns="http://www.w3.org/2000/svg">
<path d="M5.49999 0C2.46354 0 0 2.46354 0 5.5C0 8.53644 2.46354 11 5.49999 11C8.53646 11 11 8.53644 11 5.5C11 2.46354 8.53646 0 5.49999 0ZM9.53906 6.77472H8.86589L8.09243 5.35678L6.50259 5.92969L7.04688 4.95571L7.77735 3.62369L9.53906 6.77472ZM7.60545 1.34635L9.10935 4.09637H8.42187L7.76303 2.8789L6.54557 3.26561L7.60545 1.34635ZM6.3164 3.6953L7.14714 3.42317L6.77475 4.09637H6.08723L6.3164 3.6953ZM6.27345 6.35938L7.10415 6.08725L6.73176 6.76042H6.04427L6.27345 6.35938ZM5.98697 4.78384C5.98697 4.9987 5.91537 5.18488 5.78646 5.34244C5.91537 5.5 5.98697 5.68618 5.98697 5.90104C5.98697 6.14452 5.90105 6.34504 5.72916 6.51694C5.55729 6.68881 5.35676 6.77472 5.11327 6.77472H3.95313V4.59766H3.96744H4.56901V5.05597H5.12759C5.19922 5.05597 5.25649 5.02735 5.3138 4.98436C5.35676 4.9414 5.3854 4.86979 5.3854 4.79818C5.3854 4.74088 5.34244 4.64062 5.3138 4.59766C5.54297 4.54036 5.72916 4.41145 5.84374 4.29688C5.91537 4.42576 5.98697 4.61197 5.98697 4.78384ZM5.61457 1.33203V1.94791H4.62629C4.55469 1.94791 4.49738 1.97656 4.44011 2.01953C4.3828 2.07682 4.36848 2.13411 4.36848 2.20573C4.36848 2.27734 4.39712 2.33463 4.44011 2.39192C4.49738 2.44922 4.55469 2.46354 4.62629 2.46354H4.94141C5.1849 2.46354 5.3854 2.54948 5.55729 2.72135C5.72916 2.89323 5.8151 3.09374 5.8151 3.33725C5.8151 3.58073 5.72916 3.78125 5.55729 3.95312C5.3854 4.12498 5.1849 4.21093 4.94141 4.21093H3.95313V3.59504H4.94141C5.013 3.59504 5.07031 3.56642 5.12759 3.52343C5.1849 3.46616 5.19922 3.40886 5.19922 3.33725C5.19922 3.26561 5.17058 3.20834 5.12759 3.15104C5.07031 3.09374 5.013 3.07943 4.94141 3.07943H4.62629C4.3828 3.07943 4.1823 2.99349 4.0104 2.82161C3.83854 2.64974 3.75259 2.44922 3.75259 2.20573C3.75259 1.96224 3.83854 1.76172 4.0104 1.58984C4.1823 1.41797 4.3828 1.33203 4.62629 1.33203H5.61457ZM9.92577 8.52213C9.85418 8.6367 9.76823 8.73696 9.6966 8.83725C8.70832 9.32421 7.60545 9.61068 6.47395 9.61068C6.44531 9.61068 6.41667 9.61068 6.38803 9.61068C5.8867 9.73958 5.35676 9.79685 4.8125 9.79685C4.72656 9.79685 4.65496 9.79685 4.56901 9.79685C3.91017 9.76823 3.27993 9.65363 2.67838 9.45312C3.07943 9.91145 3.5091 10.3125 3.99608 10.6562C3.82422 10.599 3.63801 10.5417 3.48046 10.4701C3.3086 10.3268 3.13671 10.1693 2.96484 10.0117C3.03644 10.1263 3.10807 10.2409 3.1797 10.3411C2.26302 9.89711 1.48958 9.20964 0.959634 8.35026C1.33203 8.62239 1.73307 8.86587 2.16276 9.06639C2.07682 8.95182 1.99088 8.82291 1.91927 8.70834C1.63281 8.25 1.38932 7.77735 1.1888 7.27602C0.902344 6.97524 0.644531 6.64582 0.415363 6.28777C0.315103 6.14452 0.229165 6.0013 0.143227 5.85808C0.128905 5.74348 0.128905 5.62891 0.128905 5.5C0.128905 4.4974 0.40104 3.55208 0.888018 2.75C1.07422 3.48047 1.375 4.15363 1.74739 4.78384C2.01953 3.03646 2.86458 1.47526 4.09635 0.315104C4.21094 0.286458 4.32552 0.257812 4.44011 0.229166C3.06511 1.43229 2.13411 3.12239 1.89062 5.01301C3.26561 7.10415 5.62889 8.49348 8.32161 8.49348C8.36456 8.49348 8.42187 8.49348 8.46483 8.49348C9.73959 7.60545 10.6133 6.24478 10.8138 4.69792C10.8568 4.95571 10.8711 5.22787 10.8711 5.51431C10.8711 6.6172 10.5417 7.64844 9.95441 8.50782C9.48175 8.60808 9.00912 8.66535 8.50782 8.67969C8.04948 8.99478 7.56249 9.2526 7.03256 9.43881C8.04948 9.33855 9.03776 9.02343 9.92577 8.52213Z" fill="white"/>
</svg>
